<svg xmlns="http://www.w3.org/2000/svg" width="20" height="20" viewBox="0 0 20 20">
  <g fill="none" fill-rule="evenodd" stroke="#0C1E3C" stroke-width="3" transform="translate(0 1.994)">
    <path d="M4,2.50585938 C2.61928813,2.50585938 1.5,3.6251475 1.5,5.00585938 L1.5,14.0058594 C1.5,15.3865712 2.61928813,16.5058594 4,16.5058594 L16,16.5058594 C17.3807119,16.5058594 18.5,15.3865712 18.5,14.0058594 L18.5,5.00585938 C18.5,3.6251475 17.3807119,2.50585937 16,2.50585938 L4,2.50585938 Z"/>
    <path fill="#0C1E3C" d="M1.5,7.50585938 L18.5,7.50585938 L18.5,5.00585938 C18.5,3.6251475 17.3807119,2.50585937 16,2.50585938 L4,2.50585938 C2.61928813,2.50585938 1.5,3.6251475 1.5,5.00585938 L1.5,7.50585938 Z"/>
    <path stroke-linecap="square" d="M4.90300479 1.50585938L4.90300479-7.17204074e-14M14.9030048 1.50585938L14.9030048-7.14983628e-14"/>
  </g>
</svg>
